<svg width="40" height="40" viewBox="0 0 40 40" fill="none" xmlns="http://www.w3.org/2000/svg">
  <rect width="40" height="40" rx="8" fill="#6366f1"/>
  <path d="M20 8C14.477 8 10 12.477 10 18C10 23.523 14.477 28 20 28C25.523 28 30 23.523 30 18C30 12.477 25.523 8 20 8Z" fill="white" fill-opacity="0.2"/>
  <path d="M20 12C18.895 12 18 12.895 18 14V20C18 21.105 18.895 22 20 22C21.105 22 22 21.105 22 20V14C22 12.895 21.105 12 20 12Z" fill="white"/>
  <path d="M20 26C21.105 26 22 25.105 22 24C22 22.895 21.105 22 20 22C18.895 22 18 22.895 18 24C18 25.105 18.895 26 20 26Z" fill="white"/>
</svg>